<?xml version="1.0" encoding="UTF-8"?>
<svg xmlns="http://www.w3.org/2000/svg" xmlns:xlink="http://www.w3.org/1999/xlink" width="30px" height="32px" viewBox="0 0 30 32" version="1.1">
<g id="surface1">
<path style=" stroke:none;fill-rule:nonzero;fill:rgb(0%,15%,60%);fill-opacity:1;" d="M 0.00390625 8.734375 L 15.015625 0 L 29.996094 8.734375 L 29.996094 12.101562 L 27.628906 12.101562 L 27.628906 23.140625 L 2.304688 23.140625 L 2.304688 12.101562 L 0.00390625 12.101562 Z M 14.945312 3.929688 L 5.769531 9.332031 L 5.769531 19.734375 L 24.253906 19.734375 L 24.253906 9.332031 Z M 20.214844 14.402344 L 20.214844 17.703125 L 9.804688 17.703125 L 9.804688 14.402344 Z M 20.214844 13.628906 L 9.804688 13.628906 L 9.804688 10.429688 L 20.214844 10.429688 Z M 5.136719 27.269531 C 4.96875 27.367188 4.871094 27.4375 4.671875 27.4375 C 3.96875 27.4375 3.46875 26.800781 3.46875 26.136719 C 3.46875 25.335938 3.96875 24.835938 4.601562 24.835938 C 5.335938 24.835938 5.738281 25.402344 5.738281 26.101562 C 5.738281 26.46875 5.636719 26.667969 5.472656 26.96875 L 5.769531 27.234375 L 5.472656 27.535156 Z M 4.800781 26.902344 L 4.636719 26.671875 L 4.933594 26.4375 L 5.136719 26.636719 C 5.167969 26.402344 5.203125 26.167969 5.203125 26.035156 C 5.203125 25.601562 4.902344 25.335938 4.566406 25.335938 C 4.234375 25.335938 4 25.601562 4 26.101562 C 4 26.636719 4.367188 26.902344 4.800781 26.902344 Z M 9.304688 30.632812 C 9.304688 29.933594 9.839844 29.398438 10.441406 29.398438 C 11.105469 29.398438 11.609375 29.964844 11.609375 30.699219 C 11.609375 31.5 11.105469 32 10.472656 32 C 9.839844 32 9.304688 31.5 9.304688 30.632812 Z M 10.4375 29.902344 C 10.136719 29.902344 9.835938 30.203125 9.835938 30.703125 C 9.835938 31.203125 10.136719 31.503906 10.472656 31.503906 C 10.804688 31.503906 11.070312 31.171875 11.070312 30.703125 C 11.070312 30.238281 10.804688 29.902344 10.4375 29.902344 Z M 16.910156 24.835938 C 17.613281 24.835938 18.078125 25.402344 18.078125 26.101562 C 18.078125 26.902344 17.613281 27.4375 16.945312 27.4375 C 16.308594 27.4375 15.808594 26.902344 15.808594 26.101562 C 15.808594 25.300781 16.277344 24.835938 16.910156 24.835938 Z M 17.550781 26.136719 C 17.550781 25.601562 17.25 25.335938 16.917969 25.335938 C 16.585938 25.335938 16.351562 25.636719 16.351562 26.136719 C 16.351562 26.636719 16.585938 26.9375 16.984375 26.9375 C 17.351562 26.9375 17.550781 26.636719 17.550781 26.136719 Z M 8.242188 27.339844 L 9.074219 24.90625 L 9.675781 24.90625 L 10.507812 27.339844 L 10.007812 27.339844 L 9.84375 26.875 L 8.90625 26.875 L 8.742188 27.339844 Z M 9.375 25.636719 L 9.074219 26.371094 L 9.640625 26.371094 Z M 27.621094 26.46875 L 28.054688 26.46875 C 27.988281 26.800781 27.890625 26.9375 27.589844 26.9375 C 27.222656 26.9375 26.988281 26.636719 26.988281 26.167969 C 26.988281 25.667969 27.253906 25.367188 27.621094 25.367188 C 27.921875 25.367188 28.054688 25.535156 28.222656 25.800781 L 28.554688 25.800781 C 28.554688 25.367188 28.289062 24.902344 27.589844 24.902344 C 26.921875 24.902344 26.453125 25.367188 26.453125 26.234375 C 26.453125 26.902344 26.886719 27.4375 27.457031 27.4375 C 27.621094 27.4375 27.820312 27.371094 28.15625 27.203125 L 28.257812 27.402344 L 28.589844 27.402344 L 28.589844 26.101562 L 27.621094 26.101562 Z M 26.558594 29.46875 L 27.324219 30.9375 L 27.324219 31.9375 L 27.792969 31.9375 L 27.792969 30.9375 L 28.660156 29.46875 L 28.09375 29.46875 L 27.558594 30.402344 L 27.09375 29.46875 Z M 20.648438 26.570312 C 20.714844 27.070312 20.984375 27.4375 21.652344 27.4375 C 22.21875 27.4375 22.617188 27.101562 22.617188 26.636719 C 22.617188 26.402344 22.484375 26.167969 22.285156 26.101562 L 21.652344 25.867188 C 21.316406 25.734375 21.285156 25.636719 21.285156 25.566406 C 21.285156 25.46875 21.382812 25.335938 21.617188 25.335938 C 21.816406 25.335938 21.917969 25.433594 22.085938 25.703125 L 22.484375 25.703125 C 22.484375 25.269531 22.285156 24.867188 21.652344 24.867188 C 21.183594 24.867188 20.75 25.203125 20.75 25.636719 C 20.75 25.902344 20.949219 26.136719 21.285156 26.269531 L 21.851562 26.46875 C 22.050781 26.535156 22.085938 26.601562 22.085938 26.703125 C 22.085938 26.800781 21.984375 26.96875 21.71875 26.96875 C 21.515625 26.96875 21.316406 26.835938 21.117188 26.570312 Z M 24.023438 27.339844 L 24.523438 27.339844 L 24.523438 25.90625 L 25.527344 27.339844 L 25.992188 27.339844 L 25.992188 24.90625 L 25.527344 24.90625 L 25.527344 26.441406 L 24.523438 24.90625 L 24.023438 24.90625 Z M 20.179688 29.46875 L 20.179688 31.9375 L 20.648438 31.9375 L 20.648438 30.503906 L 21.648438 31.9375 L 22.117188 31.9375 L 22.117188 29.46875 L 21.648438 29.46875 L 21.648438 31.003906 L 20.648438 29.46875 Z M 13.378906 27.339844 L 13.882812 27.339844 L 13.882812 26.304688 L 14.816406 26.304688 L 14.816406 27.339844 L 15.316406 27.339844 L 15.316406 24.90625 L 14.816406 24.90625 L 14.816406 25.773438 L 13.882812 25.773438 L 13.882812 24.90625 L 13.378906 24.90625 Z M 12.445312 31.9375 L 12.445312 29.46875 L 13.378906 29.46875 C 13.878906 29.46875 14.246094 29.734375 14.246094 30.167969 C 14.246094 30.300781 14.179688 30.535156 14.011719 30.800781 C 14.210938 31.136719 14.277344 31.300781 14.3125 31.9375 L 13.8125 31.9375 C 13.777344 31.503906 13.710938 31.371094 13.511719 31.035156 L 12.976562 31.035156 L 12.976562 31.9375 Z M 12.976562 29.972656 L 12.976562 30.539062 L 13.441406 30.539062 C 13.609375 30.539062 13.742188 30.441406 13.742188 30.273438 C 13.742188 30.105469 13.609375 29.972656 13.441406 29.972656 Z M 6.136719 24.902344 L 6.136719 26.371094 C 6.136719 27.035156 6.46875 27.402344 7.035156 27.402344 C 7.636719 27.402344 7.9375 27.003906 7.9375 26.371094 L 7.9375 24.902344 L 7.4375 24.902344 L 7.4375 26.371094 C 7.4375 26.671875 7.371094 26.902344 7.035156 26.902344 C 6.734375 26.902344 6.636719 26.671875 6.636719 26.371094 L 6.636719 24.902344 Z M 14.914062 29.46875 L 14.914062 29.96875 L 15.546875 29.96875 L 15.546875 31.9375 L 16.046875 31.9375 L 16.046875 29.96875 L 16.714844 29.96875 L 16.714844 29.46875 Z M 24.253906 29.46875 L 24.253906 29.96875 L 24.917969 29.96875 L 24.917969 31.9375 L 25.421875 31.9375 L 25.421875 29.96875 L 26.054688 29.96875 L 26.054688 29.46875 Z M 18.511719 24.902344 L 18.511719 26.433594 C 18.511719 27.035156 18.847656 27.4375 19.378906 27.4375 C 19.945312 27.4375 20.28125 27.136719 20.28125 26.433594 L 20.28125 24.902344 L 19.78125 24.902344 L 19.78125 26.402344 C 19.78125 26.734375 19.679688 26.9375 19.414062 26.9375 C 19.144531 26.9375 19.011719 26.734375 19.011719 26.402344 L 19.011719 24.902344 Z M 17.449219 29.464844 L 17.449219 31.167969 C 17.449219 31.699219 17.8125 32 18.316406 32 C 18.882812 32 19.214844 31.667969 19.214844 31.101562 L 19.214844 29.464844 L 18.714844 29.464844 L 18.714844 31.03125 C 18.714844 31.332031 18.613281 31.535156 18.347656 31.535156 C 18.046875 31.535156 17.949219 31.300781 17.949219 31 L 17.949219 29.464844 Z M 4.371094 29.46875 L 5.304688 29.46875 C 5.769531 29.46875 6.105469 29.800781 6.105469 30.269531 C 6.105469 30.902344 5.605469 31.101562 4.871094 31.101562 L 4.871094 31.9375 L 4.371094 31.9375 Z M 4.867188 29.972656 L 4.867188 30.539062 L 5.300781 30.539062 C 5.433594 30.539062 5.566406 30.441406 5.566406 30.273438 C 5.566406 30.105469 5.433594 29.972656 5.300781 29.972656 Z M 1.464844 27.339844 L 3.199219 27.339844 L 3.199219 26.90625 L 1.964844 26.90625 L 1.964844 26.273438 L 3.03125 26.273438 L 3.03125 25.839844 L 1.964844 25.839844 L 1.964844 25.304688 L 3.199219 25.304688 L 3.199219 24.90625 L 1.464844 24.90625 Z M 10.839844 24.90625 L 10.839844 27.339844 L 12.40625 27.339844 L 12.40625 26.875 L 11.339844 26.875 L 11.339844 24.90625 Z M 23.054688 29.46875 L 23.554688 29.46875 L 23.554688 31.9375 L 23.054688 31.9375 Z M 22.953125 24.90625 L 23.453125 24.90625 L 23.453125 27.339844 L 22.953125 27.339844 Z M 1.253906 30.617188 C 1.253906 29.917969 1.789062 29.386719 2.390625 29.386719 C 3.054688 29.386719 3.558594 29.953125 3.558594 30.683594 C 3.558594 31.484375 3.054688 31.984375 2.421875 31.984375 C 1.789062 31.984375 1.253906 31.484375 1.253906 30.617188 Z M 2.386719 29.890625 C 2.085938 29.890625 1.789062 30.191406 1.789062 30.691406 C 1.789062 31.191406 2.085938 31.488281 2.421875 31.488281 C 2.753906 31.488281 3.023438 31.15625 3.023438 30.691406 C 3.023438 30.222656 2.753906 29.890625 2.386719 29.890625 Z M 6.925781 29.46875 L 7.859375 29.46875 C 8.324219 29.46875 8.660156 29.800781 8.660156 30.269531 C 8.660156 30.902344 8.160156 31.101562 7.425781 31.101562 L 7.425781 31.9375 L 6.925781 31.9375 Z M 7.421875 29.972656 L 7.421875 30.539062 L 7.855469 30.539062 C 7.988281 30.539062 8.121094 30.441406 8.121094 30.273438 C 8.121094 30.105469 7.988281 29.972656 7.855469 29.972656 Z M 7.421875 29.972656 "/>
</g>
</svg>
